<?xml version="1.0" encoding="utf-8"?>
<!-- Generator: Adobe Illustrator 23.0.5, SVG Export Plug-In . SVG Version: 6.00 Build 0)  -->
<svg version="1.1" id="Layer_1" xmlns="http://www.w3.org/2000/svg" xmlns:xlink="http://www.w3.org/1999/xlink" x="0px" y="0px"
	 viewBox="0 0 150 250" style="enable-background:new 0 0 150 250;" xml:space="preserve">
<style type="text/css">
	.st0{fill:#E8F7F7;}
	.st1{enable-background:new    ;}
	.st2{fill:#03514B;}
</style>
<g>
	<g id="Layer_2-2">
		<rect class="st0" width="150" height="250"/>
		<g class="st1">
			<path class="st2" d="M23.9,120.4c0,5.5-3.1,10.2-9.5,10.2H7.7v-20.3h6.7C20.8,110.2,23.9,114.9,23.9,120.4z M19.6,120.4
				c0-3-1.6-5.5-5.5-5.5h-1.8v10.9h1.8C18,125.9,19.6,123.4,19.6,120.4z"/>
		</g>
		<g class="st1">
			<path class="st2" d="M39.6,125.9v4.7H26.8v-20.3h12.3v4.7h-7.7v3.1h6.9v4.7h-6.9v3.1H39.6z"/>
		</g>
		<g class="st1">
			<path class="st2" d="M55.1,125.9v4.7H43.2v-20.3h4.7v15.6H55.1z"/>
		</g>
		<g class="st1">
			<path class="st2" d="M63,110.2v20.3h-4.7v-20.3H63z"/>
		</g>
		<g class="st1">
			<path class="st2" d="M79.1,124.6l2.3,3.9c-1.7,1.6-3.6,2.5-5.8,2.5c-5.5,0-9.7-4.7-9.7-10.6c0-5.9,4.2-10.6,9.7-10.6
				c2.2,0,4.1,1,5.8,2.6l-2.3,3.9c-1-0.9-2.2-1.4-3.5-1.4c-2.9,0-5.1,2.5-5.1,5.6c0,3.1,2.2,5.6,5.1,5.6
				C76.9,126,78,125.5,79.1,124.6z"/>
		</g>
		<g class="st1">
			<path class="st2" d="M88.7,110.2v20.3h-4.7v-20.3H88.7z"/>
			<path class="st2" d="M109.1,120.4c0,5.9-4.2,10.6-9.2,10.6c-4.9,0-9.2-4.7-9.2-10.6c0-5.9,4.3-10.6,9.2-10.6
				C104.8,109.8,109.1,114.5,109.1,120.4z M104.6,120.4c0-3.1-2.1-5.6-4.7-5.6c-2.6,0-4.7,2.5-4.7,5.6s2.1,5.5,4.7,5.5
				C102.5,125.9,104.6,123.5,104.6,120.4z"/>
		</g>
		<g class="st1">
			<path class="st2" d="M128,110.2v12c0,5.8-3.4,8.7-7.5,8.7s-7.5-2.9-7.5-8.7v-12h4.7c0,0,0,9.8,0,12.2c0,2.4,1.3,3.7,2.9,3.7
				s2.9-1.2,2.9-3.7c0-2.4,0-12.2,0-12.2H128z"/>
		</g>
		<g class="st1">
			<path class="st2" d="M144.7,125.1c-0.4,5.8-5.2,6.3-8,5.9c-2.6-0.3-5.1-1.7-6.5-2.9l2.1-4.2c1.9,2.6,6.9,3.5,7.3,1.3
				c0.7-3.7-9-1.7-8.2-9.8c0.3-3,2.2-5.9,7.4-5.5c3.3,0.2,5,1.6,5.3,2l-1.7,4.4c-1.6-1.8-5.9-2.8-6.3-0.4
				C135.6,118.8,145.2,117.8,144.7,125.1z"/>
		</g>
	</g>
</g>
</svg>
