<?xml version="1.0" encoding="utf-8"?>
<!-- Generator: Adobe Illustrator 23.0.5, SVG Export Plug-In . SVG Version: 6.00 Build 0)  -->
<svg version="1.1" id="Layer_1" xmlns="http://www.w3.org/2000/svg" xmlns:xlink="http://www.w3.org/1999/xlink" x="0px" y="0px"
	 viewBox="0 0 150 250" style="enable-background:new 0 0 150 250;" xml:space="preserve">
<style type="text/css">
	.st0{fill:#EDF2E2;}
	.st1{enable-background:new    ;}
	.st2{fill:#3E5403;}
</style>
<g>
	<g id="Layer_2-2">
		<rect class="st0" width="150" height="250"/>
		<g class="st1">
			<path class="st2" d="M20.3,125.9v4.7H8.7v-4.1c0,0,5.2-5.5,6.6-8.7c1.3-3-2.1-5.3-3.7-1.2l-3.7-2.3c0.9-2.2,3-4.5,6.5-4.5
				c5.5,0,6.9,5.6,4.8,10c-1.6,3.5-4.1,6.1-4.1,6.1H20.3z"/>
		</g>
		<g class="st1">
			<path class="st2" d="M38.6,124.6l2.5,3.9c-1.8,1.6-3.8,2.5-6.2,2.5c-5.9,0-10.4-4.7-10.4-10.6c0-5.9,4.5-10.6,10.4-10.6
				c2.4,0,4.4,1,6.2,2.6l-2.5,3.9c-1.1-0.9-2.4-1.4-3.7-1.4c-3.1,0-5.5,2.5-5.5,5.6c0,3.1,2.4,5.6,5.5,5.6
				C36.2,126,37.5,125.5,38.6,124.6z"/>
		</g>
		<g class="st1">
			<path class="st2" d="M61.5,120.4c0,5.9-4.5,10.6-9.8,10.6c-5.3,0-9.8-4.7-9.8-10.6c0-5.9,4.6-10.6,9.8-10.6
				C57,109.8,61.5,114.5,61.5,120.4z M56.7,120.4c0-3.1-2.2-5.6-5-5.6c-2.8,0-5,2.5-5,5.6s2.2,5.5,5,5.5
				C54.5,125.9,56.7,123.5,56.7,120.4z"/>
			<path class="st2" d="M76.4,125.9v4.7H63.6v-20.3h5v15.6H76.4z"/>
		</g>
		<g class="st1">
			<path class="st2" d="M96.7,110.2v12c0,5.8-3.7,8.7-8.1,8.7s-8-2.9-8-8.7v-12h5c0,0,0,9.8,0,12.2c0,2.4,1.4,3.7,3.1,3.7
				s3.1-1.2,3.1-3.7c0-2.4,0-12.2,0-12.2H96.7z"/>
			<path class="st2" d="M121.9,110.2v20.3h-5v-11l-4.4,6.2h-2.2l-4.4-6.2v11h-5v-20.3h4.4l6.1,9l6.1-9H121.9z"/>
			<path class="st2" d="M130.5,110.2l6.3,10.8v-10.8h5v20.3h-4.4l-6.3-10.8v10.8h-5v-20.3H130.5z"/>
		</g>
	</g>
</g>
</svg>
