<?xml version="1.0" encoding="utf-8"?>
<!-- Generator: Adobe Illustrator 23.0.5, SVG Export Plug-In . SVG Version: 6.00 Build 0)  -->
<svg version="1.1" id="Layer_1" xmlns="http://www.w3.org/2000/svg" xmlns:xlink="http://www.w3.org/1999/xlink" x="0px" y="0px"
	 viewBox="0 0 150 250" style="enable-background:new 0 0 150 250;" xml:space="preserve">
<style type="text/css">
	.st0{fill:#F9E5E8;}
	.st1{enable-background:new    ;}
	.st2{fill:#3F0404;}
</style>
<g>
	<g id="Layer_2-2">
		<rect class="st0" width="150" height="250"/>
		<g class="st1">
			<path class="st2" d="M33.7,110.2v20.3h-4.7v-7.8h-5.7v7.8h-4.7v-20.3h4.7v7.8h5.7v-7.8H33.7z"/>
		</g>
		<g class="st1">
			<path class="st2" d="M50.4,125.9v4.7H37.6v-20.3H50v4.7h-7.7v3.1h6.9v4.7h-6.9v3.1H50.4z"/>
		</g>
		<g class="st1">
			<path class="st2" d="M64,127h-5.4l-1,3.6h-5.2l6.4-20.3h5l6.5,20.3h-5.2L64,127z M62.6,122.3l-1.3-4.5l-1.3,4.5H62.6z"/>
		</g>
		<g class="st1">
			<path class="st2" d="M84.6,125.9v4.7H72.8v-20.3h4.7v15.6H84.6z"/>
		</g>
		<g class="st1">
			<path class="st2" d="M99.3,114.9h-5v15.6h-4.7v-15.6h-5v-4.7h14.7V114.9z"/>
		</g>
		<g class="st1">
			<path class="st2" d="M117.3,110.2v20.3h-4.7v-7.8h-5.7v7.8h-4.7v-20.3h4.7v7.8h5.7v-7.8H117.3z"/>
		</g>
		<g class="st1">
			<path class="st2" d="M136.1,110.2l-6.1,12.9v7.4h-4.7v-7.4l-6.1-12.9h5.2l3.2,7.6l3.2-7.6H136.1z"/>
		</g>
	</g>
</g>
</svg>
