<svg version="1.1" xmlns="http://www.w3.org/2000/svg" width="37" height="32" viewBox="0 0 37 32">
<path d="M18.272 20.192q0 1.152-0.64 1.92t-1.632 0.736h-9.152q-0.96 0-1.6-0.736t-0.672-1.92 0.16-2.080 0.512-1.856 1.088-1.376 1.728-0.512q0.128 0.064 0.544 0.32t0.672 0.384 0.64 0.288 0.768 0.288 0.736 0.064 0.768-0.064 0.768-0.288 0.608-0.288 0.672-0.384 0.544-0.32q1.024 0 1.728 0.512t1.088 1.376 0.512 1.856 0.16 2.080zM15.488 10.912q0 1.664-1.184 2.848t-2.88 1.216-2.848-1.216-1.184-2.848 1.184-2.88 2.848-1.184 2.88 1.184 1.184 2.88zM32 18.848v1.152q0 0.256-0.16 0.416t-0.416 0.16h-10.272q-0.256 0-0.416-0.16t-0.16-0.416v-1.152q0-0.256 0.16-0.416t0.416-0.16h10.272q0.256 0 0.416 0.16t0.16 0.416zM32 14.368v0.992q0 0.256-0.192 0.448t-0.448 0.192h-10.144q-0.256 0-0.448-0.192t-0.192-0.448v-0.992q0-0.288 0.192-0.48t0.448-0.16h10.144q0.256 0 0.448 0.16t0.192 0.48zM32 9.728v1.12q0 0.256-0.16 0.416t-0.416 0.16h-10.272q-0.256 0-0.416-0.16t-0.16-0.416v-1.12q0-0.256 0.16-0.416t0.416-0.16h10.272q0.256 0 0.416 0.16t0.16 0.416zM34.272 26.848v-21.696q0-0.256-0.16-0.416t-0.384-0.16h-30.88q-0.224 0-0.384 0.16t-0.192 0.416v21.696q0 0.224 0.192 0.416t0.384 0.16h6.304v-1.696q0-0.256 0.16-0.416t0.416-0.16h1.12q0.256 0 0.416 0.16t0.16 0.416v1.696h13.728v-1.696q0-0.256 0.16-0.416t0.416-0.16h1.12q0.256 0 0.416 0.16t0.16 0.416v1.696h6.304q0.224 0 0.384-0.16t0.16-0.416zM36.576 5.152v21.696q0 1.184-0.832 2.016t-2.016 0.864h-30.88q-1.152 0-2.016-0.864t-0.832-2.016v-21.696q0-1.184 0.832-2.016t2.016-0.864h30.88q1.152 0 2.016 0.864t0.832 2.016z"></path>
</svg>
