<svg version="1.1" xmlns="http://www.w3.org/2000/svg" width="37" height="32" viewBox="0 0 37 32">
<path d="M18.272 20.192q0-1.152-0.16-2.080t-0.512-1.856-1.088-1.376-1.728-0.512q-0.096 0.064-0.544 0.32t-0.672 0.384-0.608 0.288-0.768 0.288-0.768 0.064-0.736-0.064-0.768-0.288-0.64-0.288-0.672-0.384-0.544-0.32q-1.024 0-1.728 0.512t-1.088 1.376-0.512 1.856-0.16 2.080 0.672 1.92 1.6 0.736h9.152q0.96 0 1.632-0.736t0.64-1.92zM15.488 10.912q0-1.696-1.184-2.88t-2.88-1.184-2.848 1.184-1.184 2.88 1.184 2.848 2.848 1.216 2.88-1.216 1.184-2.848zM32 20v-1.152q0-0.256-0.16-0.416t-0.416-0.16h-10.272q-0.256 0-0.416 0.16t-0.16 0.416v1.152q0 0.256 0.16 0.416t0.416 0.16h10.272q0.256 0 0.416-0.16t0.16-0.416zM32 15.36v-0.992q0-0.288-0.192-0.48t-0.448-0.16h-10.144q-0.256 0-0.448 0.16t-0.192 0.48v0.992q0 0.256 0.192 0.448t0.448 0.192h10.144q0.256 0 0.448-0.192t0.192-0.448zM32 10.848v-1.12q0-0.256-0.16-0.416t-0.416-0.16h-10.272q-0.256 0-0.416 0.16t-0.16 0.416v1.12q0 0.256 0.16 0.416t0.416 0.16h10.272q0.256 0 0.416-0.16t0.16-0.416zM36.576 5.152v21.696q0 1.184-0.832 2.016t-2.016 0.864h-6.304v-1.728q0-0.256-0.16-0.416t-0.416-0.16h-1.12q-0.256 0-0.416 0.16t-0.16 0.416v1.728h-13.728v-1.728q0-0.256-0.16-0.416t-0.416-0.16h-1.12q-0.256 0-0.416 0.16t-0.16 0.416v1.728h-6.304q-1.152 0-2.016-0.864t-0.832-2.016v-21.696q0-1.184 0.832-2.016t2.016-0.864h30.88q1.152 0 2.016 0.864t0.832 2.016z"></path>
</svg>
