<!-- Generated by IcoMoon.io -->
<svg version="1.1" xmlns="http://www.w3.org/2000/svg" width="41" height="32" viewBox="0 0 41 32">

<path d="M30.848 8l-6.848 12.576h13.728zM8 8l-6.848 12.576h13.696zM22.656 4.576q-0.256 0.704-0.8 1.28t-1.28 0.8v23.072h10.848q0.256 0 0.416 0.16t0.16 0.384v1.152q0 0.256-0.16 0.416t-0.416 0.16h-24q-0.256 0-0.416-0.16t-0.16-0.416v-1.152q0-0.224 0.16-0.384t0.416-0.16h10.848v-23.072q-0.704-0.256-1.248-0.8t-0.832-1.28h-8.768q-0.256 0-0.416-0.16t-0.16-0.416v-1.152q0-0.256 0.16-0.416t0.416-0.16h8.768q0.384-0.992 1.248-1.632t1.984-0.64 1.984 0.64 1.248 1.632h8.768q0.256 0 0.416 0.16t0.16 0.416v1.152q0 0.256-0.16 0.416t-0.416 0.16h-8.768zM19.424 4.864q0.608 0 1.024-0.416t0.416-1.024-0.416-0.992-1.024-0.448-0.992 0.448-0.416 0.992 0.416 1.024 0.992 0.416zM38.848 20.576q0 1.312-0.832 2.336t-2.080 1.632-2.592 0.864-2.496 0.32-2.496-0.32-2.56-0.864-2.112-1.632-0.832-2.336q0-0.192 0.64-1.44t1.632-3.136 1.92-3.488 1.824-3.296 0.992-1.76q0.32-0.608 0.992-0.608t1.024 0.608q0.064 0.128 0.992 1.76t1.824 3.296 1.888 3.488 1.664 3.136 0.608 1.44zM16 20.576q0 1.312-0.832 2.336t-2.080 1.632-2.592 0.864-2.496 0.32-2.496-0.32-2.56-0.864-2.112-1.632-0.832-2.336q0-0.192 0.64-1.44t1.632-3.136 1.92-3.488 1.824-3.296 0.992-1.76q0.32-0.608 0.992-0.608t0.992 0.608q0.096 0.128 1.024 1.76t1.792 3.296 1.92 3.488 1.664 3.136 0.608 1.44z"></path>
</svg>
