<!-- Generated by IcoMoon.io -->
<svg version="1.1" xmlns="http://www.w3.org/2000/svg" width="32" height="32" viewBox="0 0 32 32">

<path d="M32 25.152v6.848h-32v-6.848q0.8 0 1.504-0.256t1.056-0.48 0.864-0.672q0.512-0.48 0.896-0.704t1.024-0.192q0.416 0 0.768 0.128t0.576 0.288 0.576 0.48q0.512 0.448 0.832 0.672t1.056 0.48 1.536 0.256 1.504-0.256 1.056-0.48 0.832-0.672q0.384-0.352 0.576-0.48t0.576-0.288 0.768-0.128q0.64 0 1.024 0.192t0.896 0.704q0.512 0.416 0.864 0.672t1.024 0.48 1.536 0.256 1.504-0.256 1.056-0.48 0.832-0.672q0.544-0.48 0.928-0.704t1.024-0.192q0.608 0 0.992 0.192t0.896 0.704q0.512 0.416 0.864 0.672t1.056 0.48 1.504 0.256zM32 19.424v3.424q-0.416 0-0.8-0.128t-0.544-0.256-0.576-0.48q-0.512-0.448-0.832-0.672t-1.056-0.48-1.504-0.256q-0.832 0-1.536 0.256t-1.056 0.48-0.832 0.672q-0.384 0.32-0.576 0.48t-0.576 0.256-0.768 0.128q-0.64 0-1.024-0.192t-0.896-0.672q-0.544-0.448-0.864-0.672t-1.024-0.48-1.536-0.256q-0.8 0-1.504 0.256t-1.056 0.48-0.864 0.672q-0.352 0.32-0.576 0.48t-0.544 0.256-0.768 0.128q-0.64 0-1.024-0.192t-0.928-0.672q-0.48-0.448-0.832-0.672t-1.056-0.48-1.504-0.256q-0.832 0-1.536 0.256t-1.024 0.48-0.864 0.672q-0.512 0.48-0.896 0.672t-1.024 0.192v-3.424q0-1.44 0.992-2.432t2.432-0.992h1.152v-8h4.576v8h4.576v-8h4.544v8h4.576v-8h4.576v8h1.152q1.44 0 2.432 0.992t0.992 2.432zM9.152 4q0 1.376-0.64 2.112t-1.664 0.736q-0.928 0-1.6-0.672t-0.672-1.6q0-0.512 0.16-0.928t0.416-0.608 0.576-0.48 0.544-0.576 0.416-0.8 0.16-1.184q0.704 0 1.504 1.312t0.8 2.688zM18.272 4q0 1.376-0.64 2.112t-1.632 0.736q-0.96 0-1.6-0.672t-0.672-1.6q0-0.512 0.16-0.928t0.416-0.608 0.544-0.48 0.576-0.576 0.416-0.8 0.16-1.184q0.672 0 1.472 1.312t0.8 2.688zM27.424 4q0 1.376-0.64 2.112t-1.632 0.736q-0.96 0-1.632-0.672t-0.672-1.6q0-0.512 0.192-0.928t0.416-0.608 0.544-0.48 0.544-0.576 0.416-0.8 0.192-1.184q0.672 0 1.472 1.312t0.8 2.688z"></path>
</svg>
