<!-- Generated by IcoMoon.io -->
<svg version="1.1" xmlns="http://www.w3.org/2000/svg" width="32" height="32" viewBox="0 0 32 32">

<path d="M19.424 14.848q0-0.448-0.32-0.8t-0.832-0.32h-4.544q-0.48 0-0.8 0.32t-0.352 0.8 0.352 0.8 0.8 0.352h4.544q0.48 0 0.832-0.352t0.32-0.8zM29.728 11.424v17.152q0 0.448-0.352 0.8t-0.8 0.352h-25.152q-0.448 0-0.8-0.352t-0.352-0.8v-17.152q0-0.448 0.352-0.8t0.8-0.352h25.152q0.448 0 0.8 0.352t0.352 0.8zM30.848 3.424v4.576q0 0.448-0.32 0.8t-0.8 0.352h-27.456q-0.448 0-0.8-0.352t-0.32-0.8v-4.576q0-0.448 0.32-0.8t0.8-0.352h27.456q0.448 0 0.8 0.352t0.32 0.8z"></path>
</svg>
