<!-- Generated by IcoMoon.io -->
<svg version="1.1" xmlns="http://www.w3.org/2000/svg" width="31" height="32" viewBox="0 0 31 32">

<path d="M0 24.384q0.352-0.48 1.024-0.832t1.568-0.64 1.28-0.48q0.608 0 1.088 0.128t1.056 0.48 0.8 0.416q1.504 0.672 8.32 3.808 0.608 0.128 1.152 0t1.248-0.576 0.768-0.448q0.64-0.288 2.464-1.12t2.784-1.248q0.128-0.064 1.344-0.672t1.92-0.768q0.416-0.064 0.896 0.032t0.736 0.224 0.736 0.416 0.576 0.352 0.512 0.192 0.576 0.256 0.352 0.352q0.096 0.128 0.128 0.448-0.32 0.416-0.992 0.768t-1.632 0.704-1.28 0.512q-1.376 0.64-4.096 1.984t-4.128 1.952q-0.224 0.096-0.672 0.384t-0.736 0.416-0.832 0.352-0.864 0.224-0.96-0.064l-8.448-3.936q-0.192-0.096-1.024-0.448t-1.632-0.704-1.728-0.768-1.472-0.768-0.704-0.512q-0.128-0.128-0.128-0.416zM0 15.808q0.352-0.48 1.024-0.8t1.6-0.64 1.312-0.48q0.608 0 1.088 0.128t1.12 0.48 0.8 0.448q1.344 0.608 4.064 1.856t4.064 1.888q0.608 0.16 1.184 0t1.248-0.544 0.8-0.448q2.176-1.024 5.12-2.304 0.352-0.16 1.024-0.544t1.216-0.608 1.152-0.352q0.512-0.096 1.024 0.032t1.184 0.544 0.736 0.416q0.16 0.096 0.512 0.192t0.576 0.256 0.352 0.352q0.096 0.16 0.128 0.448-0.32 0.448-0.992 0.8t-1.696 0.736-1.312 0.512q-1.536 0.736-4.32 2.080t-3.936 1.888q-0.224 0.096-0.832 0.448t-0.928 0.48-1.024 0.32-1.152 0q-6.848-3.232-8.32-3.904-0.192-0.096-1.408-0.608t-2.208-0.96-1.984-0.96-1.088-0.704q-0.128-0.128-0.128-0.448zM0 7.264q0.32-0.48 1.024-0.864t1.664-0.704 1.312-0.512l11.136-5.184q0.96 0 1.728 0.224t1.792 0.832 1.28 0.704q1.248 0.576 3.744 1.728t3.744 1.76q0.128 0.064 1.184 0.48t1.728 0.768 0.864 0.64q0.096 0.128 0.128 0.416-0.288 0.416-0.832 0.704t-1.376 0.608-1.12 0.448q-1.504 0.704-4.48 2.112t-4.448 2.144q-0.192 0.096-0.64 0.352t-0.736 0.384-0.8 0.352-0.864 0.192-0.896-0.032q-7.84-3.648-8.192-3.808-0.128-0.064-2.016-0.896t-3.264-1.472-1.536-0.96q-0.128-0.128-0.128-0.416z"></path>
</svg>
