<!-- Generated by IcoMoon.io -->
<svg version="1.1" xmlns="http://www.w3.org/2000/svg" width="30" height="32" viewBox="0 0 30 32">

<path d="M0 16q0-3.040 1.184-5.824t3.2-4.768 4.8-3.2 5.824-1.184 5.824 1.184 4.768 3.2 3.2 4.768 1.184 5.824-1.184 5.824-3.2 4.8-4.768 3.2-5.824 1.184-5.824-1.184-4.8-3.2-3.2-4.8-1.184-5.824zM3.744 16q0 3.072 1.504 5.664t4.096 4.096 5.664 1.504q3.040 0 5.632-1.504t4.096-4.096 1.504-5.664q0-3.040-1.504-5.632t-4.096-4.096-5.632-1.504q-2.304 0-4.384 0.896t-3.584 2.4-2.4 3.584-0.896 4.352zM13.12 16v-7.168q0-0.768 0.544-1.312t1.344-0.576 1.312 0.576 0.544 1.312v6.4l4.544 4.512q0.544 0.544 0.544 1.344t-0.544 1.312-1.312 0.544q-0.8 0-1.344-0.544l-5.088-5.056q-0.032-0.064-0.128-0.16t-0.096-0.128q-0.032-0.064-0.064-0.128l-0.064-0.096t-0.032-0.128q-0.032 0-0.064-0.16-0.064-0.16-0.064-0.16-0.032-0.192-0.032-0.384z"></path>
</svg>
