<!-- Generated by IcoMoon.io -->
<svg version="1.1" xmlns="http://www.w3.org/2000/svg" width="34" height="32" viewBox="0 0 34 32">

<path d="M29.728 11.424q0-1.44-1.024-2.432t-2.432-0.992h-1.12v6.848h1.12q1.44 0 2.432-0.992t1.024-2.432zM0 25.152h32q0 1.888-1.344 3.232t-3.232 1.344h-22.848q-1.888 0-3.232-1.344t-1.344-3.232zM33.152 11.424q0 2.848-2.016 4.864t-4.864 1.984h-1.12v0.576q0 1.664-1.184 2.816t-2.816 1.184h-12.576q-1.632 0-2.816-1.184t-1.184-2.816v-13.12q0-0.48 0.352-0.832t0.8-0.32h20.544q2.848 0 4.864 2.016t2.016 4.832z"></path>
</svg>
