<!-- Generated by IcoMoon.io -->
<svg version="1.1" xmlns="http://www.w3.org/2000/svg" width="30" height="32" viewBox="0 0 30 32">

<path d="M28.768 14.848q0 0.96-0.672 1.6l-11.616 11.648q-0.704 0.672-1.632 0.672t-1.6-0.672l-11.616-11.648q-0.672-0.64-0.672-1.6 0-0.928 0.672-1.632l1.312-1.312q0.704-0.672 1.632-0.672t1.6 0.672l5.248 5.248v-12.576q0-0.928 0.672-1.6t1.632-0.704h2.272q0.928 0 1.6 0.704t0.672 1.6v12.576l5.28-5.248q0.64-0.672 1.6-0.672 0.928 0 1.632 0.672l1.312 1.312q0.672 0.704 0.672 1.632z"></path>
</svg>
