<!-- Generated by IcoMoon.io -->
<svg version="1.1" xmlns="http://www.w3.org/2000/svg" width="30" height="32" viewBox="0 0 30 32">

<path d="M25.152 17.664v4.608q0 2.144-1.504 3.648t-3.648 1.504h-14.848q-2.144 0-3.648-1.504t-1.504-3.648v-14.848q0-2.112 1.504-3.616t3.648-1.536h4.544q0.224 0 0.416 0.192t0.16 0.384q0 0.48-0.48 0.576-1.376 0.48-2.368 1.088-0.16 0.064-0.288 0.064h-1.984q-1.184 0-2.016 0.832t-0.864 2.016v14.848q0 1.184 0.864 2.016t2.016 0.864h14.848q1.184 0 2.016-0.864t0.832-2.016v-3.808q0-0.352 0.32-0.512 0.512-0.224 0.992-0.672 0.256-0.288 0.608-0.128 0.384 0.16 0.384 0.512zM29.376 8.8l-6.848 6.848q-0.32 0.352-0.8 0.352-0.224 0-0.448-0.096-0.704-0.288-0.704-1.056v-3.424h-2.848q-5.792 0-7.84 2.336-2.112 2.464-1.312 8.448 0.064 0.416-0.352 0.608-0.16 0.032-0.224 0.032-0.288 0-0.448-0.224-0.192-0.256-0.384-0.544t-0.704-1.248-0.896-1.76-0.672-2.048-0.32-2.176q0-0.864 0.064-1.632t0.256-1.6 0.48-1.568 0.864-1.44 1.216-1.344 1.664-1.088 2.24-0.864 2.848-0.544 3.52-0.192h2.848v-3.424q0-0.768 0.704-1.056 0.224-0.096 0.448-0.096 0.448 0 0.8 0.352l6.848 6.848q0.352 0.32 0.352 0.8t-0.352 0.8z"></path>
</svg>
