<!-- Generated by IcoMoon.io -->
<svg version="1.1" xmlns="http://www.w3.org/2000/svg" width="27" height="32" viewBox="0 0 27 32">
<path d="M17.952 19.648l6.272-6.272q0.352-0.352 0.352-0.8t-0.352-0.8l-6.272-6.304q-0.544-0.544-1.248-0.256-0.704 0.32-0.704 1.056v2.88q-2.112 0-3.84 0.352t-2.912 0.896-2.048 1.408-1.344 1.696-0.8 1.952-0.384 1.984-0.096 1.984q0 3.232 2.976 7.232 0.192 0.192 0.448 0.192 0.128 0 0.224-0.032 0.416-0.16 0.352-0.608-0.8-6.304 1.12-8.448 0.8-0.928 2.304-1.344t4-0.416v2.848q0 0.768 0.704 1.056 0.224 0.096 0.448 0.096 0.448 0 0.8-0.352zM27.424 7.424v17.152q0 2.112-1.504 3.616t-3.648 1.536h-17.12q-2.144 0-3.648-1.536t-1.504-3.616v-17.152q0-2.112 1.504-3.616t3.648-1.536h17.12q2.144 0 3.648 1.536t1.504 3.616z"></path>
</svg>
