<!-- Generated by IcoMoon.io -->
<svg version="1.1" xmlns="http://www.w3.org/2000/svg" width="30" height="32" viewBox="0 0 30 32">

<path d="M11.2 5.6c-4.8 0-9.6 2.4-9.6 6.4v3.2h27.2v-3.2c0-4-4.8-6.4-9.6-6.4zM12 7.2c0.448 0 0.8 0.352 0.8 0.8s-0.352 0.8-0.8 0.8c-0.448 0-0.8-0.352-0.8-0.8s0.352-0.8 0.8-0.8zM18.4 7.2c0.448 0 0.8 0.352 0.8 0.8s-0.352 0.8-0.8 0.8c-0.448 0-0.8-0.352-0.8-0.8s0.352-0.8 0.8-0.8zM8.8 10.4c0.448 0 0.8 0.352 0.8 0.8s-0.352 0.8-0.8 0.8c-0.448 0-0.8-0.352-0.8-0.8s0.352-0.8 0.8-0.8zM15.2 10.4c0.448 0 0.8 0.352 0.8 0.8s-0.352 0.8-0.8 0.8c-0.448 0-0.8-0.352-0.8-0.8s0.352-0.8 0.8-0.8zM21.6 10.4c0.448 0 0.8 0.352 0.8 0.8s-0.352 0.8-0.8 0.8c-0.448 0-0.8-0.352-0.8-0.8s0.352-0.8 0.8-0.8zM1.6 16.8c-0.8 0-1.6 0.8-1.6 1.6s0.8 1.6 1.6 1.6h27.2c0.8 0 1.6-0.8 1.6-1.6s-0.8-1.6-1.6-1.6zM1.6 21.6v1.6c0 1.6 1.6 3.2 3.2 3.2h20.8c1.6 0 3.2-1.6 3.2-3.2v-1.6z"></path>
</svg>
