<!-- Generated by IcoMoon.io -->
<svg version="1.1" xmlns="http://www.w3.org/2000/svg" width="25" height="32" viewBox="0 0 25 32">

<path d="M25.152 30.272v1.152q0 0.224-0.192 0.416t-0.384 0.16h-24q-0.224 0-0.416-0.16t-0.16-0.416v-1.152q0-0.224 0.16-0.384t0.416-0.16h24q0.224 0 0.384 0.16t0.192 0.384zM20.576 11.424q0 1.408-0.448 2.56t-1.12 2.016-1.568 1.568-1.728 1.408-1.568 1.28-1.12 1.44-0.448 1.728q0 1.728 1.184 4h-0.032q-1.632-0.736-2.88-1.472t-2.464-1.792-2.016-2.176-1.312-2.688-0.48-3.296q0-1.408 0.448-2.56t1.12-2.016 1.568-1.568 1.728-1.408 1.568-1.28 1.12-1.44 0.448-1.728q0-1.696-1.184-4l0.064 0.032-0.032-0.032q1.6 0.736 2.848 1.472t2.496 1.792 2.016 2.176 1.312 2.688 0.48 3.296z"></path>
</svg>
