<!-- Generated by IcoMoon.io -->
<svg version="1.1" xmlns="http://www.w3.org/2000/svg" width="31" height="32" viewBox="0 0 31 32">

<path d="M27.936 2.272q1.184 0 1.984 0.832t0.8 1.952v9.28q0 3.136-1.216 6.016t-3.264 4.896-4.896 3.264-5.952 1.216q-3.168 0-6.016-1.216t-4.896-3.264-3.264-4.896-1.216-6.016v-9.28q0-1.12 0.832-1.952t1.952-0.832h25.152zM15.392 21.28q0.832 0 1.44-0.576l7.232-6.944q0.64-0.608 0.64-1.504t-0.608-1.504-1.472-0.608-1.472 0.576l-5.76 5.536-5.792-5.536q-0.608-0.576-1.44-0.576-0.864 0-1.504 0.608t-0.608 1.504q0 0.896 0.64 1.504l7.232 6.944q0.608 0.576 1.472 0.576z"></path>
</svg>
