<!-- Generated by IcoMoon.io -->
<svg version="1.1" xmlns="http://www.w3.org/2000/svg" width="32" height="32" viewBox="0 0 32 32">

<path d="M15.712 2.272q-0.832 0-1.408 0.608t-0.576 1.408v11.712h-0.576v-9.44q0-0.8-0.608-1.408t-1.408-0.576-1.408 0.576-0.576 1.408v14.016l-2.752-3.68q-0.672-0.896-1.824-0.896-0.96 0-1.632 0.672t-0.672 1.6q0 0.768 0.48 1.376l6.848 9.152q0.672 0.928 1.824 0.928h12.288q0.608 0 1.088-0.416t0.608-0.992l1.376-7.232q0.064-0.576 0.064-1.056v-8.896q0-0.832-0.576-1.408t-1.408-0.576-1.408 0.576-0.608 1.408v4.864h-0.576v-9.44q0-0.8-0.576-1.408t-1.408-0.576-1.408 0.576-0.608 1.408v9.44h-0.544v-11.712q0-0.832-0.608-1.408t-1.408-0.608zM15.712 0q1.216 0 2.24 0.64t1.6 1.728q0.32-0.096 0.736-0.096 1.76 0 3.040 1.28t1.248 3.008v0.32q1.888-0.128 3.232 1.152t1.344 3.104v8.896q0 0.704-0.16 1.472l-1.344 7.232q-0.256 1.408-1.376 2.336t-2.56 0.928h-12.288q-1.056 0-2.048-0.48t-1.6-1.344l-6.848-9.152q-0.928-1.216-0.928-2.752 0-1.888 1.344-3.232t3.232-1.312q1.376 0 2.272 0.576v-7.744q0-1.76 1.28-3.008t3.008-1.28q0.416 0 0.768 0.096 0.544-1.088 1.568-1.728t2.24-0.64z"></path>
</svg>
