<!-- Generated by IcoMoon.io -->
<svg version="1.1" xmlns="http://www.w3.org/2000/svg" width="19" height="32" viewBox="0 0 19 32">

<path d="M0 28.384v-2.24q0-0.704 0.384-1.568t0.768-1.472 1.216-1.76l0.768-1.056t0.832-1.152 0.704-1.056 0.576-1.12 0.16-0.96-0.16-0.96-0.576-1.12-0.704-1.056-0.832-1.152l-0.768-1.024q-0.832-1.184-1.216-1.76t-0.768-1.472-0.384-1.568v-2.24q0-1.088 0.768-1.856t1.888-0.768h13.408q1.12 0 1.888 0.768t0.8 1.856v2.24q0 0.704-0.384 1.568t-0.768 1.472-1.216 1.76l-0.768 1.024t-0.864 1.152-0.704 1.056-0.544 1.12-0.192 0.96 0.192 0.96 0.544 1.12 0.704 1.056 0.864 1.152l0.768 1.056q0.8 1.152 1.216 1.76t0.768 1.472 0.384 1.568v2.24q0 1.088-0.8 1.856t-1.888 0.768h-13.408q-1.088 0-1.888-0.768t-0.768-1.856zM3.2 27.264h1.28q0-0.288 0.064-0.544t0.288-0.576 0.384-0.512 0.544-0.576 0.608-0.512 0.704-0.544 0.736-0.512 0.8-0.576 0.768-0.544q0.256 0.192 0.832 0.608t0.896 0.608 0.8 0.608 0.8 0.608 0.608 0.608 0.512 0.608 0.32 0.608 0.128 0.64h1.28v-1.12q0-0.224-0.448-0.992-0.256-0.448-1.344-2.016-1.696-2.4-2.272-3.456-1.088-2.048-1.088-3.68 0-0.832 0.224-1.728t0.8-1.824 0.96-1.6 1.152-1.632l0.224-0.32q1.056-1.504 1.344-2.048 0.192-0.288 0.288-0.544t0.128-0.352l0.032-0.064v-1.12h-12.352v1.12q0.032 0.256 0.416 0.96 0.32 0.544 1.376 2.048 1.696 2.4 2.272 3.456 1.088 2.016 1.088 3.648 0 0.864-0.256 1.728t-0.8 1.856-0.928 1.568-1.152 1.664q-0.032 0.032-0.064 0.064t-0.064 0.064-0.064 0.096-0.032 0.096q-1.088 1.568-1.376 2.016-0.416 0.768-0.416 0.992v1.12z"></path>
</svg>
