<!-- Generated by IcoMoon.io -->
<svg version="1.1" xmlns="http://www.w3.org/2000/svg" width="27" height="32" viewBox="0 0 27 32">

<path d="M18.272 17.152h5.632q0-0.064-0.032-0.16t-0.064-0.128l-3.776-8.864h-12.64l-3.776 8.864q-0.032 0.032-0.064 0.128t-0.032 0.16h5.632l1.696 3.424h5.728zM27.424 17.664v8.608q0 0.48-0.32 0.8t-0.832 0.352h-25.12q-0.48 0-0.8-0.352t-0.352-0.8v-8.608q0-1.088 0.448-2.176l4.256-9.856q0.16-0.448 0.64-0.768t0.928-0.288h14.88q0.448 0 0.928 0.288t0.64 0.768l4.256 9.856q0.448 1.088 0.448 2.176z"></path>
</svg>
