<!-- Generated by IcoMoon.io -->
<svg version="1.1" xmlns="http://www.w3.org/2000/svg" width="32" height="32" viewBox="0 0 32 32">

<path d="M6.848 25.152q0 1.408-0.992 2.432t-2.432 0.992-2.432-0.992-0.992-2.432 0.992-2.432 2.432-0.992 2.432 0.992 0.992 2.432zM6.848 16q0 1.44-0.992 2.432t-2.432 0.992-2.432-0.992-0.992-2.432 0.992-2.432 2.432-0.992 2.432 0.992 0.992 2.432zM32 23.424v3.424q0 0.224-0.16 0.416t-0.416 0.16h-21.696q-0.256 0-0.416-0.16t-0.16-0.416v-3.424q0-0.224 0.16-0.384t0.416-0.192h21.696q0.224 0 0.416 0.192t0.16 0.384zM6.848 6.848q0 1.44-0.992 2.432t-2.432 0.992-2.432-0.992-0.992-2.432 0.992-2.432 2.432-0.992 2.432 0.992 0.992 2.432zM32 14.272v3.456q0 0.224-0.16 0.384t-0.416 0.16h-21.696q-0.256 0-0.416-0.16t-0.16-0.384v-3.456q0-0.224 0.16-0.384t0.416-0.16h21.696q0.224 0 0.416 0.16t0.16 0.384zM32 5.152v3.424q0 0.224-0.16 0.384t-0.416 0.192h-21.696q-0.256 0-0.416-0.192t-0.16-0.384v-3.424q0-0.256 0.16-0.416t0.416-0.16h21.696q0.224 0 0.416 0.16t0.16 0.416z"></path>
</svg>
