<!-- Generated by IcoMoon.io -->
<svg version="1.1" xmlns="http://www.w3.org/2000/svg" width="32" height="32" viewBox="0 0 32 32">

<path d="M6.816 28.928q0 1.44-0.992 2.24t-2.4 0.832q-1.92 0-3.072-1.184l0.992-1.568q0.896 0.8 1.92 0.8 0.512 0 0.896-0.256t0.384-0.768q0-1.12-1.888-0.992l-0.448-0.992q0.128-0.192 0.576-0.768t0.768-0.992 0.64-0.672v-0.032q-0.288 0-0.864 0.032t-0.864 0v0.96h-1.888v-2.72h5.952v1.568l-1.696 2.080q0.896 0.192 1.44 0.864t0.544 1.568zM6.848 17.728v2.848h-6.464q-0.128-0.64-0.128-0.96 0-0.928 0.448-1.664t0.992-1.216 1.184-0.864 0.992-0.768 0.448-0.8q0-0.448-0.288-0.704t-0.704-0.224q-0.8 0-1.44 1.024l-1.504-1.056q0.416-0.896 1.28-1.408t1.888-0.512q1.28 0 2.176 0.736t0.896 2.016q0 0.896-0.608 1.632t-1.344 1.152-1.344 0.896-0.64 0.96h2.272v-1.088h1.888zM32 23.424v3.424q0 0.224-0.16 0.416t-0.416 0.16h-21.696q-0.256 0-0.416-0.16t-0.16-0.416v-3.424q0-0.256 0.16-0.416t0.416-0.16h21.696q0.224 0 0.416 0.192t0.16 0.384zM6.848 7.36v1.792h-5.984v-1.792h1.92q0-0.704 0-2.144t0.032-2.176v-0.224h-0.032q-0.16 0.32-0.896 0.96l-1.28-1.344 2.432-2.272h1.888v7.2h1.92zM32 14.272v3.456q0 0.224-0.16 0.384t-0.416 0.16h-21.696q-0.256 0-0.416-0.16t-0.16-0.384v-3.456q0-0.224 0.16-0.384t0.416-0.16h21.696q0.224 0 0.416 0.16t0.16 0.384zM32 5.152v3.424q0 0.224-0.16 0.384t-0.416 0.192h-21.696q-0.256 0-0.416-0.192t-0.16-0.384v-3.424q0-0.256 0.16-0.416t0.416-0.16h21.696q0.224 0 0.416 0.16t0.16 0.416z"></path>
</svg>
