<!-- Generated by IcoMoon.io -->
<svg version="1.1" xmlns="http://www.w3.org/2000/svg" width="33" height="32" viewBox="0 0 33 32">

<path d="M0 17.408v11.424c0.036 1.757 1.469 3.168 3.231 3.168 0.011 0 0.023-0 0.034-0h-0.002c0 0 0 0 0.001 0 1.762 0 3.195-1.411 3.231-3.165l0-0.003v-17.44c-0.241 3.372-3.036 6.016-6.448 6.016-0.017 0-0.033-0-0.050-0h0.003M32.32 0c-0.057-0.001-0.125-0.001-0.193-0.001-6.96 0-12.614 5.598-12.703 12.537l-0 0.008v3.904c0-1.803 1.461-3.264 3.264-3.264s3.264 1.461 3.264 3.264v0 1.632c0 1.803 1.461 3.264 3.264 3.264s3.264-1.461 3.264-3.264v0-18.080h-0.192M0 17.504c0.013 0 0.029 0 0.045 0 3.424 0 6.226-2.662 6.45-6.029l0.001-0.020v-2.976c0-0.064 0-0.16 0-0.256 0.217-1.611 1.583-2.84 3.236-2.84 1.744 0 3.168 1.367 3.259 3.088l0 0.008v12.48c0.17 1.658 1.559 2.941 3.248 2.941s3.078-1.283 3.247-2.927l0.001-0.014v-8.384c0.054-6.957 5.707-12.577 12.672-12.577 0.045 0 0.090 0 0.135 0.001l-0.007-0h-32.288z"></path>
</svg>
