<!-- Generated by IcoMoon.io -->
<svg version="1.1" xmlns="http://www.w3.org/2000/svg" width="30" height="32" viewBox="0 0 30 32">

<path d="M6.848 27.424h16v-4.576h-16v4.576zM6.848 16h16v-6.848h-2.848q-0.704 0-1.216-0.512t-0.512-1.216v-2.848h-11.424v11.424zM27.424 17.152q0-0.48-0.32-0.8t-0.832-0.352-0.8 0.352-0.32 0.8 0.32 0.8 0.8 0.32 0.832-0.32 0.32-0.8zM29.728 17.152v7.424q0 0.224-0.192 0.384t-0.384 0.192h-4v2.848q0 0.704-0.512 1.216t-1.216 0.512h-17.152q-0.704 0-1.184-0.512t-0.512-1.216v-2.848h-4q-0.224 0-0.416-0.192t-0.16-0.384v-7.424q0-1.408 1.024-2.432t2.4-0.992h1.152v-9.728q0-0.704 0.512-1.216t1.184-0.512h12q0.736 0 1.6 0.384t1.344 0.832l2.72 2.72q0.48 0.512 0.864 1.376t0.352 1.568v4.576h1.12q1.44 0 2.432 0.992t1.024 2.432z"></path>
</svg>
