<!-- Generated by IcoMoon.io -->
<svg version="1.1" xmlns="http://www.w3.org/2000/svg" width="32" height="32" viewBox="0 0 32 32">

<path d="M19.552 20.832q0.288 0.288 0 0.544-1.088 1.12-3.552 1.12t-3.552-1.12q-0.288-0.256 0-0.544 0.096-0.096 0.256-0.096t0.288 0.096q0.864 0.896 3.008 0.896t3.008-0.896q0.128-0.096 0.288-0.096t0.256 0.096zM14.080 17.6q0 0.672-0.48 1.12t-1.12 0.48-1.12-0.48-0.48-1.12q0-0.672 0.48-1.152t1.12-0.448 1.12 0.48 0.48 1.12zM21.12 17.6q0 0.672-0.48 1.12t-1.12 0.48-1.12-0.48-0.48-1.12 0.48-1.12 1.12-0.48 1.12 0.448 0.48 1.152zM25.6 15.456q0-0.864-0.608-1.504t-1.536-0.608-1.536 0.64q-2.304-1.6-5.536-1.728l1.12-5.056 3.584 0.832q0 0.64 0.448 1.12t1.12 0.448 1.152-0.48 0.448-1.12-0.448-1.12-1.152-0.48q-0.96 0-1.408 0.896l-3.968-0.896q-0.32-0.096-0.448 0.288l-1.216 5.568q-3.232 0.128-5.536 1.728-0.608-0.64-1.536-0.64-0.896 0-1.536 0.608t-0.608 1.504q0 0.64 0.32 1.152t0.896 0.768q-0.128 0.512-0.128 1.024 0 2.528 2.528 4.32t6.016 1.824q3.52 0 6.016-1.824t2.496-4.32q0-0.576-0.128-1.024 0.544-0.256 0.864-0.768t0.32-1.152zM32 16q0 3.264-1.28 6.208t-3.392 5.12-5.12 3.392-6.208 1.28-6.208-1.28-5.12-3.392-3.392-5.12-1.28-6.208 1.28-6.208 3.392-5.12 5.12-3.392 6.208-1.28 6.208 1.28 5.12 3.392 3.392 5.12 1.28 6.208z"></path>
</svg>
