<svg xmlns="http://www.w3.org/2000/svg" xmlns:xlink="http://www.w3.org/1999/xlink" viewBox="0 0 150 150"><defs><style>.cls-1{fill:url(#radial-gradient);}.cls-2{fill:#fff;}</style><radialGradient id="radial-gradient" cx="75" cy="75" r="75" gradientUnits="userSpaceOnUse"><stop offset="0" stop-color="#08bf00"/><stop offset="0.59" stop-color="#20af00"/><stop offset="1" stop-color="#2ca700"/></radialGradient></defs><title>Recipepress Reloaded</title><g id="Layer_2" data-name="Layer 2"><g id="Layer_1-2" data-name="Layer 1"><circle class="cls-1" cx="75" cy="75" r="75"/><path class="cls-2" d="M70.18,13.54a10.76,10.76,0,0,1,1.44-3.28C37.85,12,11,40.4,11,75.11a65.06,65.06,0,0,0,33.67,57.2c.06-1,.12-2.12.2-3.42.48-8.15.87-13,2.49-30.13.43-4.65.85-9.25.93-10.23.21-3,0-4.68-.76-6.46a18.87,18.87,0,0,0-2.71-4A20.54,20.54,0,0,1,42,73.92a12.56,12.56,0,0,1-1.21-4.07,54.5,54.5,0,0,1-.18-7.23c0-5.68.07-8.26.42-14.36.56-10,1.45-18,2.18-19.64.11-.26.25-.46.3-.46.32,0,.43,2.26.56,11.73.11,8.55.22,12.77.43,15.25.28,3.52.63,5,1.16,5s.81-1.51,1.12-4.77c.27-2.73.44-5.64.81-14.47.43-9.94.71-13,1.18-12.68s.51,2.84.64,13.45c.13,11.14.3,14.8.8,17,.43,1.9,1.18,1.89,1.6,0,.58-2.52.84-6.59,1.18-18.2.29-9.94.5-12.65,1-12.17s.58,3,.9,16.77c.25,10.85.65,14.93,1.46,15,.32,0,.51-.36.77-1.67.49-2.5.76-6.68,1.13-18,.31-9.39.5-12.06.86-12.16s1.53,9.41,2.13,19.15c.34,5.6.39,7,.45,12.41.09,7.7-.1,10.43-.84,12.63A20.35,20.35,0,0,1,57,79c-1.74,2.1-2.33,3.09-2.73,4.55-.26.93-.31,4.26-.16,10.78.3,13,.78,20.41,2.47,37.61.21,2.22.39,4,.53,5.5a61.41,61.41,0,0,0,9,2c.2-2.19.59-5.15,1.31-10.48.84-6.22,1.2-9.15,1.57-12.54.85-8.15,1.4-18,1.4-25.33a20.53,20.53,0,0,0-.93-7.16c-1.35-5.13-1.4-5.59-1.54-15.35-.17-11.42-.07-34.13.18-38.48C68.63,21.53,69.19,16.89,70.18,13.54Z"/><path class="cls-2" d="M75.47,10.18a7.89,7.89,0,0,1,1.53,2c3.66,6.48,6.25,23.12,6.92,44.47.29,8.76.11,11.93-.89,15.92a49.44,49.44,0,0,1-3.81,9.93c-.91,1.92-1.83,4.06-2.07,4.75l-.42,1.25,0,2.44c-.06,2.86.15,11.1.38,15.93.4,7.82,1.07,15.14,2.12,23.29.22,1.74.54,4.16.69,5.41.2,1.55.37,3,.49,4.27A62.88,62.88,0,0,0,97.27,136c.13-1.31.28-2.78.45-4.47.81-8,1.16-11.76,1.48-15.72.75-9.71,1.2-20.34,1.2-28.37,0-3.41,0-3.56-.24-4-.32-.69-1.07-1.42-3.11-3-4.36-3.46-6.38-6.12-7.64-10.08-.87-2.76-1.1-4.84-1-9.46a68.64,68.64,0,0,1,3-19.36c2.6-8.2,6.51-13.77,10.44-14.86a6,6,0,0,1,4.46.62c5.69,2.86,10.28,12.63,11.91,25.41a73,73,0,0,1,.35,14.12,17.77,17.77,0,0,1-3.87,9.29,24.06,24.06,0,0,1-5.15,4.32c-2.54,1.75-3.21,2.59-3.3,4.13-.07,1.25.18,13.55.37,18,.38,9.14.74,14.38,1.93,27.89A65.12,65.12,0,0,0,139,75.11C139,39.41,110.6,10.44,75.47,10.18Z"/></g></g></svg>