<!-- Generated by IcoMoon.io -->
<svg version="1.1" xmlns="http://www.w3.org/2000/svg" width="27" height="32" viewBox="0 0 27 32">

<path d="M21.728 18.272q2.368 0 4.032 1.696t1.664 4.032-1.664 4.032-4.032 1.696-4.064-1.696-1.664-4.032q0-0.224 0.032-0.608l-6.432-3.2q-1.632 1.536-3.872 1.536-2.4 0-4.064-1.696t-1.664-4.032 1.664-4.032 4.064-1.696q2.24 0 3.872 1.536l6.432-3.2q-0.032-0.384-0.032-0.608 0-2.368 1.664-4.032t4.064-1.696 4.032 1.696 1.664 4.032-1.664 4.032-4.032 1.696q-2.272 0-3.904-1.536l-6.432 3.2q0.032 0.384 0.032 0.608t-0.032 0.608l6.432 3.2q1.632-1.536 3.904-1.536z"></path>
</svg>
