<!-- Generated by IcoMoon.io -->
<svg version="1.1" xmlns="http://www.w3.org/2000/svg" width="27" height="32" viewBox="0 0 27 32">

<path d="M22.848 21.344q0-1.568-1.12-2.688t-2.688-1.152q-1.472 0-2.56 1.056l-4.32-2.144q0.032-0.288 0.032-0.416t-0.032-0.416l4.32-2.144q1.088 1.056 2.56 1.056 1.6 0 2.688-1.152t1.12-2.688-1.12-2.688-2.688-1.12-2.688 1.12-1.12 2.688q0 0.128 0.032 0.416l-4.288 2.144q-1.12-1.024-2.592-1.024-1.568 0-2.688 1.12t-1.12 2.688 1.12 2.688 2.688 1.12q1.472 0 2.592-1.024l4.288 2.144q-0.032 0.288-0.032 0.416 0 1.568 1.12 2.688t2.688 1.12 2.688-1.12 1.12-2.688zM27.424 7.424v17.152q0 2.112-1.504 3.616t-3.648 1.536h-17.12q-2.144 0-3.648-1.536t-1.504-3.616v-17.152q0-2.112 1.504-3.616t3.648-1.536h17.12q2.144 0 3.648 1.536t1.504 3.616z"></path>
</svg>
