<!-- Generated by IcoMoon.io -->
<svg version="1.1" xmlns="http://www.w3.org/2000/svg" width="37" height="32" viewBox="0 0 37 32">

<path d="M34.272 13.728q0.96 0 1.632 0.64t0.672 1.632-0.672 1.6-1.632 0.672h-0.256l-2.048 11.84q-0.16 0.832-0.8 1.344t-1.44 0.544h-22.88q-0.8 0-1.44-0.544t-0.8-1.344l-2.048-11.84h-0.288q-0.928 0-1.6-0.672t-0.672-1.6 0.672-1.632 1.6-0.64h32zM8.672 28q0.448-0.032 0.768-0.416t0.288-0.832l-0.576-7.424q-0.032-0.448-0.416-0.768t-0.832-0.288-0.768 0.416-0.288 0.832l0.576 7.424q0.032 0.448 0.384 0.768t0.768 0.288h0.096zM16 26.848v-7.424q0-0.448-0.352-0.8t-0.8-0.352-0.8 0.352-0.32 0.8v7.424q0 0.48 0.32 0.8t0.8 0.352 0.8-0.352 0.352-0.8zM22.848 26.848v-7.424q0-0.448-0.32-0.8t-0.8-0.352-0.8 0.352-0.352 0.8v7.424q0 0.48 0.352 0.8t0.8 0.352 0.8-0.352 0.32-0.8zM29.152 26.944l0.576-7.424q0.032-0.48-0.288-0.832t-0.768-0.416-0.832 0.288-0.416 0.768l-0.576 7.424q-0.032 0.48 0.288 0.832t0.768 0.416h0.096q0.448 0 0.768-0.288t0.384-0.768zM8.512 5.216l-1.664 7.36h-2.368l1.792-7.872q0.352-1.568 1.6-2.56t2.848-0.992h3.008q0-0.48 0.32-0.8t0.8-0.352h6.88q0.448 0 0.8 0.352t0.32 0.8h3.008q1.6 0 2.848 0.992t1.568 2.56l1.824 7.872h-2.368l-1.664-7.36q-0.192-0.8-0.8-1.28t-1.408-0.512h-3.008q0 0.48-0.32 0.8t-0.8 0.352h-6.88q-0.448 0-0.8-0.352t-0.32-0.8h-3.008q-0.8 0-1.408 0.512t-0.8 1.28z"></path>
</svg>
