<!-- Generated by IcoMoon.io -->
<svg version="1.1" xmlns="http://www.w3.org/2000/svg" width="30" height="32" viewBox="0 0 30 32">

<path d="M0.064 12.48q0.352-1.184 3.232-1.184h7.2l2.208-6.624v-0.032q0.608-1.792 1.408-2.4t1.568 0 1.376 2.4l0.032 0.032 2.176 6.624h7.232q1.856 0 2.72 0.544t0.448 1.504-1.888 2.016l-0.16 0.128-5.632 4.032 2.144 6.624 0.064 0.064q0.864 2.72-0.128 3.488t-3.36-0.928l-0.096-0.064-0.064-0.032-5.664-4.064-5.728 4.096-0.064 0.064q-2.336 1.664-3.36 0.928t-0.128-3.488l0.032-0.032v-0.064l2.176-6.592-5.664-4.032-0.128-0.128q-2.336-1.664-1.952-2.88z"></path>
</svg>
