<!-- Generated by IcoMoon.io -->
<svg version="1.1" xmlns="http://www.w3.org/2000/svg" width="32" height="32" viewBox="0 0 32 32">

<path d="M0.096 13.248q-0.384-0.992 0.512-1.6t2.912-0.576h7.744l2.368-7.104v-0.032q0.448-1.44 1.056-2.176t1.28-0.736q0.64 0 1.248 0.736t1.056 2.176l0.032 0.032 2.336 7.104h7.744q2.016 0 2.912 0.576t0.512 1.6-2.048 2.176l-0.16 0.128-6.080 4.32 2.4 7.168q0.608 1.92 0.352 2.912t-1.28 1.024q-1.184 0-2.816-1.216l-0.064-0.064-0.096-0.032-6.048-4.352-6.24 4.448q-1.664 1.248-2.816 1.248-0.992 0-1.28-1.024t0.352-2.944l0.032-0.096 2.368-7.072-6.080-4.32-0.064-0.096-0.096-0.032q-1.632-1.184-2.048-2.176zM5.376 14.080l6.496 4.64-0.672 2.080-1.824 5.536 6.592-4.704 6.56 4.704-1.824-5.536-0.672-2.080 6.496-4.64h-8.032l-0.672-2.080-1.856-5.6-2.56 7.68h-8.032z"></path>
</svg>
