<!-- Generated by IcoMoon.io -->
<svg version="1.1" xmlns="http://www.w3.org/2000/svg" width="32" height="32" viewBox="0 0 32 32">

<path d="M9.152 22.272v3.456q0 0.704-0.512 1.184t-1.216 0.512h-5.696q-0.736 0-1.216-0.512t-0.512-1.184v-3.456q0-0.704 0.512-1.216t1.216-0.48h5.696q0.736 0 1.216 0.48t0.512 1.216zM9.152 13.152v3.424q0 0.704-0.512 1.216t-1.216 0.48h-5.696q-0.736 0-1.216-0.48t-0.512-1.216v-3.424q0-0.736 0.512-1.216t1.216-0.512h5.696q0.736 0 1.216 0.512t0.512 1.216zM32 22.272v3.456q0 0.704-0.512 1.184t-1.216 0.512h-17.12q-0.736 0-1.216-0.512t-0.512-1.184v-3.456q0-0.704 0.512-1.216t1.216-0.48h17.12q0.736 0 1.216 0.48t0.512 1.216zM9.152 4v3.424q0 0.704-0.512 1.216t-1.216 0.512h-5.696q-0.736 0-1.216-0.512t-0.512-1.216v-3.424q0-0.704 0.512-1.216t1.216-0.512h5.696q0.736 0 1.216 0.512t0.512 1.216zM32 13.152v3.424q0 0.704-0.512 1.216t-1.216 0.48h-17.12q-0.736 0-1.216-0.48t-0.512-1.216v-3.424q0-0.736 0.512-1.216t1.216-0.512h17.12q0.736 0 1.216 0.512t0.512 1.216zM32 4v3.424q0 0.704-0.512 1.216t-1.216 0.512h-17.12q-0.736 0-1.216-0.512t-0.512-1.216v-3.424q0-0.704 0.512-1.216t1.216-0.512h17.12q0.736 0 1.216 0.512t0.512 1.216z"></path>
</svg>
