<!-- Generated by IcoMoon.io -->
<svg version="1.1" xmlns="http://www.w3.org/2000/svg" width="30" height="32" viewBox="0 0 30 32">

<path d="M7.84 22.688l-4.576 4.576q-0.192 0.16-0.416 0.16t-0.384-0.16q-0.192-0.192-0.192-0.416t0.192-0.416l4.544-4.544q0.192-0.16 0.416-0.16t0.416 0.16q0.16 0.16 0.16 0.384t-0.16 0.416zM10.848 23.424v5.728q0 0.256-0.16 0.416t-0.416 0.16-0.384-0.16-0.16-0.416v-5.728q0-0.256 0.16-0.416t0.384-0.16 0.416 0.16 0.16 0.416zM6.848 19.424q0 0.256-0.16 0.416t-0.416 0.16h-5.696q-0.256 0-0.416-0.16t-0.16-0.416 0.16-0.416 0.416-0.16h5.696q0.256 0 0.416 0.16t0.16 0.416zM29.44 21.728q0 2.112-1.536 3.616l-2.624 2.592q-1.472 1.504-3.616 1.504-2.176 0-3.648-1.536l-5.952-5.984q-0.384-0.384-0.768-0.992l4.288-0.32 4.864 4.896q0.48 0.48 1.216 0.48t1.216-0.48l2.624-2.592q0.512-0.512 0.512-1.184 0-0.736-0.512-1.216l-4.896-4.928 0.32-4.256q0.64 0.352 0.992 0.736l6.016 6.016q1.504 1.536 1.504 3.648zM18.4 8.8l-4.256 0.32-4.864-4.896q-0.512-0.512-1.216-0.512t-1.216 0.48l-2.624 2.624q-0.512 0.48-0.512 1.184t0.512 1.216l4.896 4.896-0.32 4.288q-0.64-0.384-1.024-0.768l-5.984-5.984q-1.504-1.536-1.504-3.648 0-2.144 1.504-3.616l2.624-2.624q1.504-1.472 3.648-1.472t3.648 1.504l5.952 5.984q0.384 0.384 0.736 1.024zM29.728 10.272q0 0.256-0.16 0.416t-0.416 0.16h-5.728q-0.256 0-0.416-0.16t-0.16-0.416 0.16-0.384 0.416-0.16h5.728q0.256 0 0.416 0.16t0.16 0.384zM20 0.576v5.696q0 0.256-0.16 0.416t-0.416 0.16-0.416-0.16-0.16-0.416v-5.696q0-0.256 0.16-0.416t0.416-0.16 0.416 0.16 0.16 0.416zM27.264 3.264l-4.576 4.576q-0.192 0.16-0.416 0.16t-0.384-0.16q-0.16-0.192-0.16-0.416t0.16-0.416l4.576-4.576q0.16-0.16 0.384-0.16t0.416 0.16q0.16 0.192 0.16 0.416t-0.16 0.416z"></path>
</svg>
