<!-- Generated by IcoMoon.io -->
<svg version="1.1" xmlns="http://www.w3.org/2000/svg" width="30" height="32" viewBox="0 0 30 32">

<path d="M28.768 17.344q0 0.896-0.672 1.6l-1.312 1.344q-0.704 0.672-1.632 0.672-0.96 0-1.6-0.672l-5.28-5.248v12.576q0 0.928-0.64 1.504t-1.632 0.608h-2.272q-0.96 0-1.632-0.608t-0.672-1.504v-12.576l-5.248 5.248q-0.64 0.672-1.6 0.672t-1.6-0.672l-1.344-1.344q-0.672-0.672-0.672-1.6 0-0.96 0.672-1.632l11.616-11.616q0.64-0.672 1.6-0.672t1.632 0.672l11.616 11.616q0.672 0.704 0.672 1.632z"></path>
</svg>
