<!-- Generated by IcoMoon.io -->
<svg version="1.1" xmlns="http://www.w3.org/2000/svg" width="32" height="32" viewBox="0 0 32 32">

<path d="M27.2 23.904q-0.384-2.752-1.568-4.608t-3.296-2.112q-1.184 1.344-2.848 2.080t-3.488 0.736-3.488-0.736-2.848-2.080q-2.112 0.288-3.296 2.112t-1.568 4.608q1.888 2.688 4.832 4.256t6.368 1.568 6.368-1.568 4.832-4.256zM22.848 11.424q0-2.848-1.984-4.832t-4.864-2.016-4.832 2.016-2.016 4.832 2.016 4.864 4.832 1.984 4.864-1.984 1.984-4.864zM32 16q0 3.264-1.28 6.208t-3.392 5.12-5.088 3.392-6.24 1.28q-3.264 0-6.208-1.28t-5.12-3.392-3.392-5.12-1.28-6.208 1.28-6.208 3.392-5.12 5.12-3.392 6.208-1.28 6.208 1.28 5.12 3.392 3.392 5.12 1.28 6.208z"></path>
</svg>
