<!-- Generated by IcoMoon.io -->
<svg version="1.1" xmlns="http://www.w3.org/2000/svg" width="32" height="32" viewBox="0 0 32 32">

<path d="M16 0q3.264 0 6.208 1.28t5.12 3.392 3.392 5.12 1.28 6.208q0 3.232-1.248 6.208t-3.424 5.088-5.088 3.424-6.24 1.28-6.24-1.28-5.088-3.392-3.392-5.12-1.28-6.208 1.28-6.208 3.392-5.12 5.12-3.392 6.208-1.28zM27.040 24.128q2.688-3.68 2.688-8.128 0-2.784-1.088-5.312t-2.944-4.384-4.384-2.944-5.312-1.088-5.312 1.088-4.384 2.944-2.912 4.384-1.12 5.312q0 4.448 2.688 8.128 1.152-5.856 5.44-5.856 2.336 2.304 5.6 2.304t5.6-2.304q4.288 0 5.44 5.856zM22.848 12.576q0-2.848-1.984-4.864t-4.864-1.984-4.832 1.984-2.016 4.864 2.016 4.832 4.832 2.016 4.864-2.016 1.984-4.832z"></path>
</svg>
