<!-- Generated by IcoMoon.io -->
<svg version="1.1" xmlns="http://www.w3.org/2000/svg" width="32" height="32" viewBox="0 0 32 32">

<path d="M27.136 21.696c-0.032-0.16-0.128-0.224-0.224-0.256-0.224-0.064-0.448 0-1.056-0.288-0.512-0.224-2.88-1.376-6.144-1.728l2.368-13.44c0.096-0.608 0.096-1.088-0.096-1.408-0.288-0.448-0.896-0.576-1.6-0.512-0.544 0.064-0.96 0.256-1.056 0.32-0.128 0.064-0.16 0.192-0.128 0.288 0 0.256 0.192 0.448 0.032 1.44-0.032 0.192-0.8 4.48-1.44 8.128-1.728 1.024-4.032 1.536-4.48 0.896-0.224-0.32-0.192-0.896 0.032-1.76 0.032-0.192 1.056-4.032 1.344-5.12 0.544-2.112 0.128-4.032-2.048-4.224-1.888-0.192-3.68 0.928-4.224 1.504-0.384 0.416-0.256 0.896 0.096 1.504 0.288 0.48 0.64 0.8 0.736 0.832 0.128 0.096 0.256 0.096 0.32 0.032 0.64-0.736 1.76-1.248 2.176-0.928 0.352 0.288 0.224 0.832 0.064 1.344 0 0-1.216 4.608-1.696 6.528-0.384 1.408-0.032 2.72 1.024 3.328 0.768 0.48 1.888 0.416 2.816 0.32 1.952-0.256 3.104-1.056 3.296-1.216l-0.384 2.016s-2.208 0.224-4.032 1.28c-2.368 1.44-3.328 4.672-1.792 6.368 1.504 1.664 4.192 1.024 5.28 0.32 1.024-0.736 2.4-2.208 3.008-5.568 3.584 0.192 4.544 2.048 6.048 2.112 1.12 0.064 1.888-0.992 1.76-2.112zM14.912 24.896c-0.512 0.288-1.056 0.32-1.376-0.032-0.32-0.384-0.416-2.496 2.912-3.136 0 0-0.512 2.56-1.536 3.168z"></path>
</svg>
