<?xml version="1.0" encoding="utf-8"?>
<!-- Generator: Adobe Illustrator 23.0.5, SVG Export Plug-In . SVG Version: 6.00 Build 0)  -->
<svg version="1.1" id="Layer_1" xmlns="http://www.w3.org/2000/svg" xmlns:xlink="http://www.w3.org/1999/xlink" x="0px" y="0px"
	 viewBox="0 0 150 250" style="enable-background:new 0 0 150 250;" xml:space="preserve">
<style type="text/css">
	.st0{fill:#F9F6EA;}
	.st1{enable-background:new    ;}
	.st2{fill:#564602;}
</style>
<g>
	<g id="Layer_2-2">
		<rect class="st0" width="150" height="250"/>
		<g class="st1">
			<path class="st2" d="M27.4,120.4c0,5.5-3.7,10.2-11.3,10.2h-8v-20.3h8C23.7,110.2,27.4,114.9,27.4,120.4z M22.2,120.4
				c0-3-1.9-5.5-6.5-5.5h-2.1v10.9h2.1C20.3,125.9,22.2,123.4,22.2,120.4z"/>
		</g>
		<g class="st1">
			<path class="st2" d="M46,125.9v4.7H30.8v-20.3h14.7v4.7h-9.1v3.1h8.2v4.7h-8.2v3.1H46z"/>
		</g>
		<g class="st1">
			<path class="st2" d="M56,114.9v3.1h8.2v4.7H56v7.8h-5.6v-20.3h14.7v4.7H56z"/>
		</g>
		<g class="st1">
			<path class="st2" d="M79.3,127h-6.4l-1.2,3.6h-6.2l7.7-20.3h6l7.7,20.3h-6.2L79.3,127z M77.6,122.3l-1.6-4.5l-1.6,4.5H77.6z"/>
		</g>
		<g class="st1">
			<path class="st2" d="M106.4,110.2v12c0,5.8-4.1,8.7-9,8.7s-8.9-2.9-8.9-8.7v-12h5.5c0,0,0,9.8,0,12.2c0,2.4,1.5,3.7,3.4,3.7
				s3.4-1.2,3.4-3.7c0-2.4,0-12.2,0-12.2H106.4z"/>
		</g>
		<g class="st1">
			<path class="st2" d="M125.2,125.9v4.7h-14.1v-20.3h5.6v15.6H125.2z"/>
		</g>
		<g class="st1">
			<path class="st2" d="M142.7,114.9h-6v15.6h-5.5v-15.6h-6v-4.7h17.5V114.9z"/>
		</g>
	</g>
</g>
</svg>
